<svg width="49" height="48" viewBox="0 0 49 48" fill="none" xmlns="http://www.w3.org/2000/svg">
<g id="icons/solid/ic-solar:gallery-add-bold">
<g id="primary-shape">
<path d="M44.5 25.3963C44.496 28.3363 44.474 30.8323 44.308 32.8823C44.114 35.2623 43.716 37.2503 42.828 38.9003C42.4405 39.6237 41.9485 40.2862 41.368 40.8663C39.702 42.5323 37.582 43.2863 34.894 43.6463C32.268 44.0003 28.9 44.0003 24.606 44.0003H24.394C20.098 44.0003 16.734 44.0003 14.106 43.6463C11.42 43.2863 9.298 42.5323 7.634 40.8663C6.158 39.3903 5.394 37.5543 4.99 35.2763C4.59 33.0363 4.518 30.2523 4.504 26.7943C4.5 25.9143 4.5 24.9843 4.5 24.0003V23.8923C4.5 19.5963 4.5 16.2323 4.854 13.6043C5.214 10.9183 5.968 8.79629 7.634 7.13229C9.298 5.46629 11.42 4.71229 14.106 4.35229C16.442 4.03829 19.446 4.00229 23.104 3.99829C23.4742 3.99829 23.8293 4.14537 24.0911 4.40717C24.3529 4.66897 24.5 5.02405 24.5 5.39429C24.5 5.76453 24.3529 6.11961 24.0911 6.38141C23.8293 6.64321 23.4742 6.79029 23.104 6.79029C19.394 6.79429 16.636 6.82629 14.478 7.11629C12.1 7.43629 10.666 8.04429 9.606 9.10429C8.546 10.1643 7.94 11.6003 7.62 13.9803C7.294 16.4003 7.29 19.5763 7.29 24.0003V25.5683L9.154 23.9403C9.97106 23.2254 11.0292 22.8478 12.1143 22.8838C13.1993 22.9198 14.2302 23.3668 14.998 24.1343L22.978 32.1143C23.5971 32.7338 24.415 33.115 25.2875 33.1907C26.1601 33.2664 27.0314 33.0319 27.748 32.5283L28.304 32.1383C29.3376 31.4118 30.587 31.0576 31.8481 31.1335C33.1091 31.2095 34.3071 31.7111 35.246 32.5563L40.512 37.2963C41.042 36.1823 41.358 34.7203 41.526 32.6563C41.684 30.7123 41.706 28.3523 41.708 25.3963C41.708 25.026 41.8551 24.671 42.1169 24.4092C42.3787 24.1474 42.7338 24.0003 43.104 24.0003C43.4742 24.0003 43.8293 24.1474 44.0911 24.4092C44.3529 24.671 44.5 25.026 44.5 25.3963Z" fill="#203D99"/>
<path fill-rule="evenodd" clip-rule="evenodd" d="M35.5 22.0003C31.258 22.0003 29.136 22.0003 27.818 20.6823C26.5 19.3643 26.5 17.2423 26.5 13.0003C26.5 8.75829 26.5 6.63629 27.818 5.31829C29.136 4.00029 31.258 4.00029 35.5 4.00029C39.742 4.00029 41.864 4.00029 43.182 5.31829C44.5 6.63629 44.5 8.75829 44.5 13.0003C44.5 17.2423 44.5 19.3643 43.182 20.6823C41.864 22.0003 39.742 22.0003 35.5 22.0003ZM37 9.00029C37 8.60247 36.842 8.22094 36.5607 7.93963C36.2794 7.65833 35.8978 7.50029 35.5 7.50029C35.1022 7.50029 34.7206 7.65833 34.4393 7.93963C34.158 8.22094 34 8.60247 34 9.00029V11.5003H31.5C31.1022 11.5003 30.7206 11.6583 30.4393 11.9396C30.158 12.2209 30 12.6025 30 13.0003C30 13.3981 30.158 13.7796 30.4393 14.061C30.7206 14.3423 31.1022 14.5003 31.5 14.5003H34V17.0003C34 17.3981 34.158 17.7796 34.4393 18.061C34.7206 18.3423 35.1022 18.5003 35.5 18.5003C35.8978 18.5003 36.2794 18.3423 36.5607 18.061C36.842 17.7796 37 17.3981 37 17.0003V14.5003H39.5C39.8978 14.5003 40.2794 14.3423 40.5607 14.061C40.842 13.7796 41 13.3981 41 13.0003C41 12.6025 40.842 12.2209 40.5607 11.9396C40.2794 11.6583 39.8978 11.5003 39.5 11.5003H37V9.00029Z" fill="#203D99"/>
</g>
</g>
</svg>
